<svg xmlns="http://www.w3.org/2000/svg" width="112.721" height="202.335" viewBox="0 0 112.721 202.335">
  <g id="Group_16" data-name="Group 16" transform="translate(0.496 0.5)">
    <g id="Americas" transform="translate(0)">
      <path id="Path_1" data-name="Path 1" d="M2060.466-248.015c-7.014-3.475-13.094-5.346-17.536,1.337s3.273,8.822,2.572,13.366-6.079,6.416-2.572,13.1c7.482,6.148-.234,16.574,7.014,5.614,3.273-13.633,6.079-17.109,13.795-8.822s9.82,13.1,9.119,18.712,7.716,25.663,15.9,31.009,17.933,10.639,16.717,15.852-7.295,13.206-1.52,20.156,5.471,10.426,0,25.021-8.632,40.382,1.52,44.448-5.015,0,0-14.457,28.329-29.817,34.651-42.015,20.942-31.52,7.9-33.153-25.684-15.638-35.167-7.506-15.015-10.843-12.645-13.553-18.967-6.325-2.766-15.812,18.177,14.457,18.572,0,10.669-21.263,15.805-28.7-3.556-22.348-11.459-6.084-13.587,10.843-14.894,0,5.411-11.719,7.386-18.509,11.064-29.83-18.572-15.374S2060.466-248.015,2060.466-248.015Z" transform="translate(-2041.543 268.067)" fill="#17cc4e" stroke="#707070" stroke-width="1"/>
    </g>
    <text id="Americas-2" data-name="Americas" transform="translate(37.518 59.437)" font-size="9" font-family="Rubik-Light, Rubik" font-weight="300"><tspan x="0" y="0">Americas</tspan></text>
  </g>
</svg>
