<svg xmlns="http://www.w3.org/2000/svg" width="225.03" height="81.84" viewBox="0 0 225.03 81.84">
  <path id="Path_4" data-name="Path 4" d="M2503.126-249.764c-1.862,0-6-2.738-1.847-4.9s12.589-.735,7.749-11.112,7.745-26.362,8.713-8.974,11.133,13.742,10.407,2.8-9.439-10.377,0-21.314,15.49-10.938,19.362-6.731,2.178,5.889-3.872,8.133,3.63,7.853,7.745,1.683,15.489-10.377,21.3-13.742,19.6.841,19.846-7.011.242-6.17,8.955-5.609,21.54-9.816,27.833-12.9,14.279,1.122,8.471,9.816-7.835,7.732,1.982,6.31,31.494-5.985,45.81-6.31,23.314,9.154,31.9,11.524,9,18.311-5.317,17.924-24.95,7.934-34.766,18.229-15.952,13.42-27.4,6.17-21.877-11.082-36.021-14.062c-21.858,3.228-35.89,5.341-45.644,11.174s-16.715,14.839-19.072,14-3.127-3.82-4.071-11.112-3.676-3.141-9.339,0-14.788,8.51-21.709,11.112A87.848,87.848,0,0,0,2503.126-249.764Z" transform="translate(-2498.988 331.104)" fill="#959595" stroke="#707070" stroke-width="1"/>
</svg>
