<?xml version="1.0" encoding="utf-8"?>
<!-- Generator: Adobe Illustrator 24.1.2, SVG Export Plug-In . SVG Version: 6.00 Build 0)  -->
<svg version="1.1" id="Layer_1" xmlns="http://www.w3.org/2000/svg" xmlns:xlink="http://www.w3.org/1999/xlink" x="0px" y="0px"
	 viewBox="0 0 572.3 802" style="enable-background:new 0 0 572.3 802;" xml:space="preserve">
<style type="text/css">
	.st0{fill:#6DE2DE;}
	.st1{fill:#FFFFFF;}
	.st2{fill:#CCCCCC;}
	.st3{fill:#FFFFFF;stroke:#000000;stroke-width:6.14;stroke-miterlimit:10;}
	.st4{fill:#6DE2DE;stroke:#000000;stroke-width:4;stroke-miterlimit:10;}
</style>
<g id="Layer_2_1_">
	<g>
		<circle class="st0" cx="285" cy="285" r="279.5"/>
		<path d="M285,570.1c-76.1,0-147.7-29.7-201.6-83.5C29.6,432.8,0,361.2,0,285S29.6,137.3,83.5,83.5C137.3,29.6,208.9,0,285,0
			s147.7,29.6,201.6,83.5c53.8,53.8,83.5,125.4,83.5,201.6s-29.7,147.7-83.5,201.6C432.8,540.4,361.2,570.1,285,570.1z M285,11
			c-73.2,0-142,28.5-193.8,80.3S11,211.8,11,285s28.5,142,80.3,193.8s120.6,80.3,193.8,80.3s142-28.5,193.8-80.3
			s80.3-120.6,80.3-193.8s-28.5-142-80.3-193.8S358.2,11,285,11z"/>
	</g>
</g>
<g id="Layer_1_1_">
	<g>
		<path class="st1" d="M307.6,430.2c0,0,98.6-9.9,92.7-85.7c56.6,6,56.6,6,56.6,6s-9.1,122-116.4,138.8S307.6,430.2,307.6,430.2z"/>
		<path d="M313.5,494.9c-17.3,0-27.9-4.1-32.1-12.3c-9.8-19,20.5-50.9,24-54.5l0.8-0.8l1.1-0.1c0.2,0,24.5-2.6,47.7-14.2
			c30.4-15.2,44.7-38.2,42.3-68.2l-0.3-3.7l63.2,6.6l-0.2,3c-0.1,1.3-2.5,31.5-18.2,64.2c-14.6,30.4-44,68.5-100.7,77.4
			C330.5,494,321.3,494.9,313.5,494.9z M309.1,433.1c-9,9.5-28.6,34.1-22.2,46.6c3.2,6.3,15.1,12.6,53.2,6.6
			c23.9-3.8,44.7-13.2,61.9-28.1c13.8-11.9,25.3-27.4,34.2-45.9c12.5-25.9,16.3-50.7,17.4-59l-50-5.2c1.1,30.6-14.8,55-46,70.6
			C336,429.3,314.3,432.5,309.1,433.1z"/>
	</g>
	<g>
		<path class="st1" d="M49.6,431.9c0,0.1-0.1,0.2-0.2,0.4c4.2,6.9,8.6,13.6,13.3,20.1c-1.8-5.1-3.3-10.6-6.8-14.7
			C53.8,435.6,51.7,433.8,49.6,431.9z"/>
		<path class="st1" d="M94.7,489.3c3.6,2.7,7.2,5.3,10.9,7.8c-9.1-7.6-18-15.7-26.7-24.2C83.9,478.6,89.2,484.1,94.7,489.3z"/>
		<path class="st1" d="M130.8,516.4c-8.7-6-17-12.5-25.2-19.3c-3.7-2.5-7.4-5.1-10.9-7.8C105.6,499.6,117.6,508.8,130.8,516.4z"/>
		<path class="st1" d="M235,559.7c0.5,0.1,1,0.1,1.5,0.2c-33.2-7.2-65.5-19.2-94.4-36.8C169.9,541.9,201.3,554.5,235,559.7z"/>
		<path class="st1" d="M334.2,561.2c-3.3,0.4-6.6,0.9-9.9,1.5C327.7,562.3,331,561.8,334.2,561.2z"/>
		<path class="st1" d="M78.9,472.9c-2.9-2.8-5.7-5.7-8.5-8.7c0.5,0.8,1,1.6,1.6,2.5c6.8,9.4,14.5,16.4,22.7,22.6
			C89.2,484.1,83.9,478.6,78.9,472.9z"/>
		<path class="st1" d="M57,438.7c-2.3-2.3-4.6-4.9-7.1-7.3c-0.1,0.2-0.2,0.4-0.2,0.5c2.1,1.9,4.2,3.7,6.4,5.8
			c3.5,4.1,5,9.6,6.8,14.7c1.5,2,3,4,4.5,6C63.9,451.8,61.2,445,57,438.7z"/>
		<path class="st1" d="M334.2,561.2c0.7-0.1,1.5-0.2,2.2-0.2c0-0.1,0-0.1,0-0.2C335.7,561,335,561.1,334.2,561.2z"/>
		<path class="st1" d="M57,438.7c4.2,6.3,7,13.1,10.3,19.7c3.8,5,7.6,9.8,11.7,14.5c8.6,8.5,17.5,16.6,26.7,24.2
			c7.7,5.3,15.6,10.4,23.4,16.6c4.2,3.3,8.6,6.4,13,9.4c28.9,17.6,61.2,29.5,94.4,36.8c28.8,3.7,59.3,6.3,87.9,2.8
			c3.3-0.6,6.6-1.1,9.9-1.5c0.7-0.1,1.5-0.3,2.2-0.4c3.3-14.6,5.1-30,5.1-45.8c0-99-69.3-179.3-154.8-179.3
			c-59.4,0-111,38.8-136.9,95.7C52.3,433.8,54.7,436.4,57,438.7z"/>
		<path class="st1" d="M105.6,497.1c8.2,6.8,16.5,13.2,25.2,19.3c1.4,0.8,2.8,1.6,4.2,2.3c2.3,1.5,4.7,3,7,4.4
			c-4.4-3-8.8-6.1-13-9.4C121.2,507.5,113.3,502.4,105.6,497.1z"/>
		<path class="st1" d="M67.2,458.5c1,2,2,3.9,3.2,5.8c2.8,2.9,5.7,5.8,8.5,8.7C74.9,468.2,71,463.4,67.2,458.5z"/>
		<path class="st1" d="M62.8,452.4c1.3,3.5,2.7,6.9,5.2,9.3c0.8,0.9,1.6,1.7,2.4,2.5c-1.1-1.9-2.2-3.8-3.2-5.8
			C65.7,456.5,64.2,454.4,62.8,452.4z"/>
		<path d="M186.8,332.6c-60.2,0-112.6,39.1-139.2,96.5c1.3,2.1,2.5,4.2,3.9,6.3c25.1-57.3,76.3-96.7,135.3-96.7
			c83.7,0,151.7,79.1,151.7,176.2c0,16-1.9,31.5-5.3,46.3c2.1-0.3,4.3-0.5,6.4-0.6c3.3-14.6,5-30,5-45.7
			C344.6,414.5,273.8,332.6,186.8,332.6z"/>
	</g>
	<g>
		<path class="st1" d="M297,182.9c8.2-3.7,13.9-12,13.9-21.6c0-13.1-10.6-23.8-23.8-23.8s-23.8,10.6-23.8,23.8c0,0.4,0,0.8,0.1,1.3
			c-18.7-8.1-39.7-12.6-61.9-12.6c-21.3,0-41.4,4.2-59.4,11.6c0-0.1,0-0.1,0-0.2c0-13.1-10.6-23.8-23.8-23.8s-23.8,10.6-23.8,23.8
			c0,9,5,16.8,12.4,20.9c-27.8,22.3-45.2,54.3-45.2,89.9c0,67.5,62.5,122.1,139.7,122.1s139.7-54.7,139.7-122.1
			C341.2,236.9,324.2,205.2,297,182.9z"/>
		<path d="M201.5,397.2c-78.7,0-142.7-56.1-142.7-125.1c0-33.7,15.7-66.1,43.1-89.6c-6.5-5-10.3-12.8-10.3-21.1
			c0-14.8,12-26.8,26.8-26.8c13.4,0,24.5,9.9,26.4,22.7c17.9-6.8,37-10.3,56.7-10.3c20.6,0,40.5,3.8,59.1,11.2
			c1.6-13.2,12.9-23.6,26.6-23.6c14.8,0,26.8,12,26.8,26.8c0,8.9-4.5,17.1-11.7,22.1c26.8,23.4,42,55.5,42,88.7
			C344.2,341.1,280.2,397.2,201.5,397.2z M118.3,140.6c-11.4,0-20.7,9.3-20.7,20.7c0,7.6,4.2,14.6,10.8,18.2l3.9,2.2l-3.5,2.8
			c-28,22.5-44,54.4-44,87.6c0,65.7,61.3,119.1,136.7,119.1s136.7-53.4,136.7-119.1c0-33.2-15.3-64.1-43.1-86.8l-3.7-3.1l4.4-2
			c7.4-3.4,12.2-10.8,12.2-18.9c0-11.4-9.3-20.7-20.7-20.7s-20.7,9.3-20.7,20.7c0,0.2,0,0.4,0,0.6l0.3,5.3l-4.5-1.9
			c-19-8.2-39.4-12.4-60.7-12.4c-20.4,0-40,3.8-58.3,11.4l-4.2,1.7l0-4.5c0-0.1,0-0.2,0-0.3C139,149.9,129.7,140.6,118.3,140.6z"/>
	</g>
	<circle cx="146.7" cy="215.2" r="12.3"/>
	<circle cx="246.7" cy="215.2" r="12.3"/>
	<circle class="st2" cx="118.3" cy="161.3" r="13.9"/>
	<circle class="st2" cx="287.1" cy="161.3" r="13.9"/>
	<ellipse class="st2" cx="198.1" cy="296.1" rx="79.8" ry="68.6"/>
	<path class="st2" d="M187.8,417.1c-45.5,0-83.9,29.5-95.7,69.7c12.8,12.5,27,23.4,42.9,31.9c40.5,26.4,88.1,41.2,136,47
		c10.3-15.1,16.3-33.2,16.3-52.6C287.3,460.1,242.7,417.1,187.8,417.1z"/>
	<circle cx="199" cy="260.3" r="12.3"/>
	<path d="M169.7,299.2c-1.4,0-2.9,0-4.4-0.1l0.4-6c12.5,0.8,21.3-1.9,26.1-8.1c8.1-10.3,3-27.2,2.9-27.3l5.7-1.8
		c0.2,0.8,6.1,20.1-3.9,32.8C191.1,295.6,182,299.2,169.7,299.2z"/>
	<path d="M230.2,299.2c-12.3,0-21.4-3.5-26.9-10.5c-10-12.8-4.2-32-3.9-32.8l5.7,1.8l-2.9-0.9l2.9,0.9c-0.1,0.2-5.1,17.1,2.9,27.3
		c4.8,6.1,13.6,8.9,26.1,8.1l0.4,6C233.1,299.1,231.6,299.2,230.2,299.2z"/>
	<g>
		
			<ellipse transform="matrix(0.2138 -0.9769 0.9769 0.2138 24.5588 680.1949)" class="st1" cx="434.9" cy="324.8" rx="50" ry="40.9"/>
		<path d="M431.3,377.6c-2.6,0-5.2-0.3-7.9-0.9c-23.7-5.2-37.8-32.7-31.6-61.3c3-13.8,10.2-25.7,20.4-33.8
			c10.3-8.2,22.3-11.3,33.9-8.7c11.6,2.5,21.2,10.4,27.2,22.1c5.8,11.5,7.4,25.4,4.4,39.2C472.2,359.7,452.3,377.6,431.3,377.6z
			 M438.3,278.2c-7.7,0-15.4,2.8-22.2,8.3c-9,7.1-15.5,17.9-18.2,30.3c-5.5,25.3,6.5,49.5,26.9,54c20.4,4.5,41.4-12.5,47-37.8
			c2.7-12.4,1.3-24.8-3.9-35.1c-5.1-10-13.3-16.8-23-18.9C442.7,278.5,440.5,278.2,438.3,278.2z"/>
	</g>
	<path class="st3" d="M462.3,285.1"/>
	<ellipse class="st2" cx="410.4" cy="307.6" rx="6.1" ry="9.2"/>
	<ellipse class="st2" cx="423.5" cy="296.1" rx="6.1" ry="9.2"/>
	
		<ellipse transform="matrix(0.2577 -0.9662 0.9662 0.2577 -0.4892 668.5082)" class="st2" cx="434.8" cy="334.6" rx="29.7" ry="23.5"/>
	<ellipse class="st2" cx="438.7" cy="289.3" rx="6.1" ry="9.2"/>
	<ellipse class="st2" cx="454.1" cy="297.4" rx="6.1" ry="9.2"/>
	<ellipse class="st2" cx="464.4" cy="312.6" rx="6.1" ry="9.2"/>
	<g id="Layer_3">
	</g>
</g>
<g id="Layer_4">
	<path d="M287.3,570.1c-76.1,0-147.7-29.7-201.6-83.5C31.9,432.8,2.2,361.2,2.2,285.1c0-76.1,29.6-147.7,83.5-201.6
		C139.6,29.7,211.1,0.1,287.3,0.1c76.1,0,147.7,29.6,201.6,83.5c53.8,53.8,83.5,125.4,83.5,201.6c0,76.1-29.7,147.7-83.5,201.6
		C435,540.5,363.4,570.1,287.3,570.1z M287.3,11.1c-73.2,0-142,28.5-193.8,80.3c-51.8,51.8-80.3,120.6-80.3,193.8
		s28.5,142,80.3,193.8s120.6,80.3,193.8,80.3s142-28.5,193.8-80.3s80.3-120.6,80.3-193.8s-28.5-142-80.3-193.8
		S360.5,11.1,287.3,11.1z"/>
</g>
<g>
	<path class="st4" d="M88.9,769.9c-4.3,0-9-0.5-14.1-1.6c-0.7-1.9-1.8-5.8-3.2-11.8c-1.5-6.1-2.6-10.1-3.5-12.1l-2.9-0.1l-2.5,0.1
		c-0.4,1.2-1,4.1-1.9,8.7c-0.7,3.8-1.4,6.9-2.1,9.3c-0.7,2.4-1.7,4.6-2.9,6.5c-1,0.2-2.5,0.3-4.4,0.3c-0.9,0-2.8-0.1-5.7-0.3
		c-8.5-0.4-13.3-0.6-14.3-0.6c0-0.5,0.1-1.6,0.3-3.5c0.2-1.8,0.5-3.8,0.9-6.1l3.2-18.5c2.5-15.2,5-28.4,7.3-39.7
		c2.3-11.3,5.3-23.2,9-35.7c1.4-0.2,3.2-0.3,5.6-0.3h0.9c6.4,0,12.6-0.2,18.7-0.7c1.2,4.6,2.3,9.1,3.2,13.6c1,4.5,1.9,8.5,2.6,12
		c3.1,13.6,5.2,22.7,6.3,27.2l9.7,52.2C96,769.5,92.6,769.9,88.9,769.9z M65.3,696.2l-0.1-1.5l-0.3,3.5c-0.3,7.4-0.7,13.2-1.3,17.5
		l-1.3,9.8h6.2C66.2,706,65.2,696.2,65.3,696.2z"/>
	<path class="st4" d="M148.6,756.1c-6.2-13.5-10.2-22.9-12.2-28.1v28.2c0,6.1,0,10.2,0.1,12.5c-2.6,0.8-5.5,1.2-8.7,1.2
		c-1,0-2.5-0.1-4.4-0.3c-2.2-0.2-3.7-0.3-4.7-0.3l-7.2-0.3v-11c0-6.3-0.1-15.2-0.3-26.8c-0.1-5.8-0.1-14.6-0.1-26.3
		c0-15.8,0.4-29,1.3-39.7c2.6-0.7,5.6-1,8.8-1c2.2,0,4.8,0.2,7.9,0.6c3.1,0.4,5.2,1,6.4,1.8c1.4,2.5,3.1,6.1,5.1,10.7
		c2,4.6,3.9,9.1,5.8,13.6l5.9,13.5c-0.2-6.9-0.3-14.9-0.3-24.3c0-7.5,0-12.7,0.1-15.6c4-0.8,8.3-1.2,12.8-1.2
		c3.8,0,7.8,0.4,11.9,1.3v104.2c-0.3,0-0.9,0.1-1.8,0.4c-1,0.4-2.7,0.6-5.1,0.6c-0.5,0.1-3.1,0-7.8-0.4c-1.2-0.1-2.7-0.2-4.5-0.3
		c-1.8-0.1-2.9-0.1-3.2,0L148.6,756.1z"/>
	<path class="st4" d="M227,665.7c0,11.5-0.1,23-0.4,34.7c-0.4,15.5-0.6,27.7-0.6,36.6c0,10.3,0.3,20.5,0.9,30.7
		c-1.5,1.5-5.3,2.2-11.5,2.2c-3.5,0-6.1,0-7.8-0.1l-1.8-0.1l-2.6-0.1c-2,0-4.5,0.4-7.5,1.2c0.6-8.5,0.9-17.6,0.9-27.2
		c0-3.8-0.1-9.5-0.3-16.9l-0.1-8.5c-0.4-10.4-0.6-18.8-0.6-25.3c0-9.7,0.4-19.3,1.3-28.7c1.3-0.2,2.6-0.3,4.1-0.3
		c0.8,0,1.9,0.1,3.2,0.2c1.4,0.1,3,0.2,4.9,0.1c5.1,0.3,9.2,0.4,12.2,0.3h5.7V665.7z"/>
	<path class="st4" d="M314.9,700.3c-0.7,5.6-2.8,10.7-6.5,15.4c-3.6,4.7-8.1,8.4-13.5,11.1c-5.4,2.7-11.1,4-17.1,4
		c-0.3,0-0.7,0-1.2,0.1c-0.5,0-1.1,0-1.8-0.1c0.1,1.2,0.1,2.4,0.1,3.5c-0.1,1.2-0.1,2.3-0.1,3.2v29.8l-1.6,0.1
		c-2.6,0.8-7.3,1.2-13.8,1.2c-4.9,0-9.4-0.2-13.5-0.7c-0.4-9.5-0.6-26-0.6-49.5v-17.8c0-16-0.1-27.6-0.4-34.8
		c7.5-2.2,15.4-3.2,23.7-3.2c12.6,0,23.4,2.7,32.3,8c8.9,5.3,13.6,13.8,14.2,25.5v0.1C315,698.2,315,699.6,314.9,700.3z
		 M280.8,687.1c-1.9-0.4-3.7-0.6-5.7-0.7c-1.9,0-3.4-0.1-4.3-0.1c0.1,1.6,0.1,4.2,0.1,7.9v1.3c0,2.9,0.1,5.4,0.2,7.3s0.5,3.6,1,5.1
		h2.1c0.7,0,2.1,0,4.3,0c2.2,0,4.1-0.3,5.7-0.9c1.6-0.6,2.9-1.6,3.7-2.9c1-1.7,1.5-3.6,1.5-5.7c0-2.6-0.8-5.1-2.4-7.4l-1.2-1.3
		C284.4,688.4,282.6,687.5,280.8,687.1z"/>
	<path class="st4" d="M375.6,769.9c-4.3,0-9-0.5-14.1-1.6c-0.7-1.9-1.8-5.8-3.2-11.8c-1.5-6.1-2.6-10.1-3.5-12.1l-2.9-0.1l-2.5,0.1
		c-0.4,1.2-1,4.1-1.9,8.7c-0.7,3.8-1.4,6.9-2.1,9.3c-0.7,2.4-1.7,4.6-2.9,6.5c-1,0.2-2.5,0.3-4.4,0.3c-0.9,0-2.8-0.1-5.7-0.3
		c-8.5-0.4-13.3-0.6-14.3-0.6c0-0.5,0.1-1.6,0.3-3.5c0.2-1.8,0.5-3.8,0.9-6.1l3.2-18.5c2.5-15.2,5-28.4,7.3-39.7
		c2.3-11.3,5.3-23.2,9-35.7c1.4-0.2,3.2-0.3,5.6-0.3h0.9c6.4,0,12.6-0.2,18.7-0.7c1.2,4.6,2.3,9.1,3.2,13.6c1,4.5,1.9,8.5,2.6,12
		c3.1,13.6,5.2,22.7,6.3,27.2l9.7,52.2C382.6,769.5,379.2,769.9,375.6,769.9z M351.9,696.2l-0.1-1.5l-0.3,3.5
		c-0.3,7.4-0.7,13.2-1.3,17.5l-1.3,9.8h6.2C352.9,706,351.8,696.2,351.9,696.2z"/>
	<path class="st4" d="M463.9,763c0,2.1-0.2,3.5-0.5,4.3c-0.3,0.8-0.9,1.3-1.5,1.5c-0.7,0.2-1.9,0.3-3.5,0.3h-1L455,769l-3.8,0.1
		c-6.1,0.2-15,0.3-26.9,0.3c-11.3,0-20.2-0.1-26.9-0.1v-3.4c0.7-16.2,1-32.4,1-48.8c0-4.8-0.1-13.1-0.3-24.8v-3.5v-5.4
		c-0.1-1.7-0.1-4.7-0.1-9l-0.1-9.6c1.4-0.5,3.3-0.9,5.7-1.2c2.4-0.3,4.9-0.5,7.3-0.5c2.7,0,5.5,0.2,8.2,0.6c2.7,0.4,4.9,0.9,6.6,1.6
		c-0.2,7.1-0.3,12.7-0.3,16.9c0,5.9,0.1,14.7,0.3,26.5c0.1,5.9,0.1,14.6,0.1,26v9.6c3.2,0,7.2,0.1,11.9,0.4l7.8,0.3
		c4.1,0.3,8,0.4,11.6,0.4c2.5,0,4.8-0.1,6.8-0.3c0,2.3,0,3.7-0.1,4.4v-0.1c-0.2,2.6-0.2,4.6-0.1,5.7l0.1,2.8
		C463.9,759,463.9,760.7,463.9,763z"/>
	<path class="st4" d="M529.5,700.5c-4.8,0-9-0.5-12.6-1.6c0.2-1,0.3-1.7,0.3-2.1c0-2.3-0.8-4.1-2.5-5.6c-1.7-1.5-3.5-2.2-5.6-2.2
		c-1.5,0-2.8,0.5-3.9,1.4c-1.1,0.9-1.8,2.3-2,4.2c-0.3,0.9-0.4,1.7-0.4,2.4l0.1,1.3v0.3c0.7,2.1,1.7,3.5,3,4.3
		c1.3,0.8,2.9,1.3,4.8,1.6c4.9,0.7,9.8,2.5,14.8,5.4c5,2.9,9,6.4,12.1,10.3c1.9,2.5,3.3,5.4,4.4,8.5c1.1,3.1,1.6,6.1,1.6,9
		c0,5.1-1.1,10-3.4,14.8c-2.5,5.5-6.5,9.8-11.8,12.8c-5.3,3-11.1,4.6-17.3,4.6c-6.4,0-12.6-1.2-18.6-3.7s-10.9-6.1-14.6-10.8
		c-3.7-4.7-5.4-10.1-5-16.3v-1.3c2.8-0.5,6-0.7,9.4-0.7c2.9,0,5.4,0.1,7.5,0.1c1.9,0.1,5.2,0.1,10,0.1c0.1,2.9,1,5.2,2.7,6.9
		c1.7,1.7,3.7,2.5,6,2.5c2,0,3.6-0.6,4.9-1.9c1.3-1.3,2-3.1,2-5.4c0-0.9-0.1-1.6-0.1-2.1c-0.5-3.6-2.2-6.2-5.1-7.6
		c-2.9-1.5-6.9-2.7-11.9-3.7l-2.2-0.4c-4.2-0.8-7.9-2.5-11-5.1c-3.5-3.4-6.2-7.1-7.9-11c-1.8-3.9-2.6-7.8-2.6-11.8
		c0-6.4,1.9-12.4,5.8-18c3.9-5.6,8.9-9.7,15.1-12.3c3.8-1.6,8.6-2.4,14.3-2.4c7.3,0,14.1,1.4,20.1,4.1c4.5,2.4,8.1,5.4,10.7,9.3
		c2.6,3.8,4,8.3,4,13.5c0,2-0.3,4.5-0.9,7.6h-1.8C537.6,700.1,533.5,700.5,529.5,700.5z"/>
</g>
</svg>
